<?xml version="1.0" encoding="utf-8"?>
<!-- Generator: Adobe Illustrator 21.1.0, SVG Export Plug-In . SVG Version: 6.00 Build 0)  -->
<svg version="1.1" id="katman_1" xmlns="http://www.w3.org/2000/svg" xmlns:xlink="http://www.w3.org/1999/xlink" x="0px" y="0px"
	 viewBox="0 0 292.4 216.2" style="enable-background:new 0 0 292.4 216.2;" xml:space="preserve">
<style type="text/css">
	.st0{fill:none;}
	.st1{fill:#FFFFFF;}
</style>
<g>
	<polygon class="st0" points="139.3,-47 139.3,-47 141.5,-47 141.9,-47 141.9,-47 1099.3,-47 1099.3,-47 	"/>
</g>
<g>
	<g>
		<path class="st1" d="M192.4,93.7c-19.7,0-35.7-16-35.7-35.7s16-35.7,35.7-35.7c5.2,0,10.1,1.1,14.5,3.1l10.6-19.7
			C209.9,2,201.4,0,192.4,0c-19.2,0-36.3,9.4-46.9,23.9C135,9.4,117.9,0,98.7,0c-8.9,0-17.3,2-24.8,5.6l10.3,19.8
			c4.4-2,9.3-3.1,14.4-3.1c19.7,0,35.7,16,35.7,35.7s-16,35.7-35.7,35.7c-5.4,0-10.5-1.2-15-3.3L73,110.1c7.7,3.8,16.4,6,25.6,6
			c19.2,0,36.3-9.4,46.9-23.9c10.6,14.5,27.6,23.9,46.9,23.9c8.8,0,17.1-2,24.6-5.5l-10.3-19.8C202.3,92.7,197.5,93.7,192.4,93.7z"
			/>
		<g>
			<path class="st1" d="M226.6,80.8c1.4-2.1,2.6-4.3,3.6-6.6l-5-1.9c-0.8,1.9-1.8,3.8-3,5.5L226.6,80.8z"/>
			<path class="st1" d="M230.5,41.6c-1-2.3-2.2-4.6-3.5-6.7l-4.8,3.3c1.1,1.7,2.1,3.5,3,5.4L230.5,41.6z"/>
			<path class="st1" d="M234.7,26.5l4.4-3c-2.3-3.1-4.9-5.9-7.7-8.5l-3.5,3.9C230.4,21.2,232.6,23.8,234.7,26.5z"/>
			<path class="st1" d="M244.8,57.6c0,1.9-0.1,3.7-0.3,5.6l5.7,0.7c0.2-1.9,0.3-3.9,0.3-5.8c0-2-0.1-3.9-0.3-5.8l-5.6,0.6
				C244.7,54.4,244.8,56,244.8,57.6z"/>
			<path class="st1" d="M240.9,37.8l5.1-1.9c-1.5-3.6-3.3-7-5.5-10.2l-4.4,3C238,31.5,239.6,34.6,240.9,37.8z"/>
			<path class="st1" d="M233.2,51.5c-0.4-2.5-1-5-1.8-7.4l-5.3,2c0.7,1.9,1.2,4,1.6,6L233.2,51.5z"/>
			<path class="st1" d="M231.2,71.7c0.9-2.4,1.5-4.8,1.9-7.3l-5.4-0.7c-0.3,2.1-0.9,4.1-1.5,6.1L231.2,71.7z"/>
			<path class="st1" d="M211.6,94.3c2.2-1.2,4.3-2.6,6.3-4.1l-3.5-4c-1.6,1.3-3.4,2.4-5.2,3.4L211.6,94.3z"/>
			<path class="st1" d="M216.4,84.5l3.5,4c1.9-1.7,3.6-3.5,5.1-5.5l-4.4-3.1C219.3,81.6,217.9,83.1,216.4,84.5z"/>
			<path class="st1" d="M235.7,87.2l4.8,3.3c2.2-3.2,4-6.6,5.5-10.2l-5.4-2.1C239.3,81.4,237.6,84.4,235.7,87.2z"/>
			<path class="st1" d="M227.2,96.8l3.9,4.4c2.9-2.6,5.5-5.4,7.8-8.6l-4.8-3.3C232.1,92.1,229.8,94.6,227.2,96.8z"/>
			<path class="st1" d="M216.7,104.2l2.7,5.2c3.4-1.8,6.7-3.9,9.6-6.4l-3.9-4.4C222.6,100.7,219.8,102.6,216.7,104.2z"/>
			<path class="st1" d="M235.6,51.2l6.3-0.7c-0.5-3.2-1.2-6.4-2.3-9.4l-5.9,2.2C234.6,45.8,235.2,48.5,235.6,51.2z"/>
			<path class="st1" d="M228.5,82.2l5.2,3.6c1.8-2.7,3.4-5.5,4.6-8.5l-5.9-2.3C231.4,77.6,230,79.9,228.5,82.2z"/>
			<path class="st1" d="M233.4,72.6l5.9,2.3c1.1-3,1.9-6.1,2.4-9.4l-6.3-0.8C235,67.4,234.4,70,233.4,72.6z"/>
			<path class="st1" d="M235.9,53.9c0.1,1.2,0.2,2.5,0.2,3.7c0,1.5-0.1,3-0.2,4.5l6.3,0.8c0.2-1.7,0.3-3.5,0.3-5.3
				c0-1.5-0.1-3-0.2-4.4L235.9,53.9z"/>
			<path class="st1" d="M221.5,90.3l4.2,4.8c2.4-2.1,4.6-4.5,6.5-7.1l-5.2-3.6C225.3,86.5,223.5,88.5,221.5,90.3z"/>
			<path class="st1" d="M226.3,20.7l-4.2,4.7c2,1.8,3.8,3.9,5.4,6l5.3-3.6C230.8,25.3,228.6,22.8,226.3,20.7z"/>
			<path class="st1" d="M212.7,96.4l2.9,5.6c2.8-1.5,5.5-3.3,8-5.3l-4.2-4.8C217.3,93.7,215.1,95.2,212.7,96.4z"/>
			<path class="st1" d="M216.4,13.5l-3,5.6c2.4,1.3,4.6,2.8,6.7,4.5l4.2-4.7C221.8,16.9,219.2,15,216.4,13.5z"/>
		</g>
		<g>
			<path class="st1" d="M63.2,54.6l-5.9-0.7c-0.1,1.4-0.2,2.8-0.2,4.2c0,1.2,0.1,2.3,0.1,3.4l5.9-0.7C63,59.9,63,59,63,58.1
				C63,56.9,63.1,55.7,63.2,54.6z"/>
			<path class="st1" d="M74.8,31.6l-3.9-4.5c-1.9,1.7-3.6,3.5-5.1,5.5l4.9,3.4C71.9,34.4,73.3,32.9,74.8,31.6z"/>
			<path class="st1" d="M79.1,21.3c-2.2,1.2-4.3,2.6-6.3,4.1l3.9,4.5c1.6-1.2,3.3-2.3,5.1-3.3L79.1,21.3z"/>
			<path class="st1" d="M64.2,34.8c-1.4,2.1-2.6,4.3-3.6,6.6l5.6,2.1c0.8-1.9,1.8-3.7,3-5.4L64.2,34.8z"/>
			<path class="st1" d="M57.5,64.1c0.4,2.5,1,5,1.8,7.4l5.6-2.1c-0.6-1.9-1.1-3.9-1.5-6L57.5,64.1z"/>
			<path class="st1" d="M72.3,90.2c1.9,1.6,4,3,6.2,4.2l2.8-5.2c-1.8-1-3.4-2.1-5-3.4L72.3,90.2z"/>
			<path class="st1" d="M69.3,25.3l-4.2-4.8c-2.4,2.1-4.6,4.5-6.5,7.1l5.2,3.6C65.4,29.1,67.2,27.1,69.3,25.3z"/>
			<path class="st1" d="M58,74.8L52,77c1.2,3,2.7,5.9,4.5,8.5l5.2-3.6C60.3,79.7,59,77.3,58,74.8z"/>
			<path class="st1" d="M57.3,43l-5.9-2.3c-1.1,3-1.9,6.1-2.4,9.4l6.3,0.8C55.7,48.2,56.4,45.6,57.3,43z"/>
			<path class="st1" d="M46.4,65.4L41.2,66c0.5,3.9,1.4,7.6,2.7,11.2l4.9-1.8C47.7,72.1,46.9,68.8,46.4,65.4z"/>
			<path class="st1" d="M49.8,77.8l-4.9,1.8c1.4,3.6,3.2,7,5.3,10.2l4.3-2.9C52.7,84.1,51.1,81,49.8,77.8z"/>
			<path class="st1" d="M74,11.4l-2.4-4.6c-3.4,1.8-6.6,3.9-9.5,6.3l3.5,3.9C68.1,14.9,71,13,74,11.4z"/>
			<path class="st1" d="M55,28.4l-4.3-3c-2.1,3.2-4,6.5-5.5,10.1l4.9,1.9C51.5,34.2,53.1,31.2,55,28.4z"/>
			<path class="st1" d="M63.5,18.7L60,14.8c-2.8,2.6-5.4,5.4-7.7,8.4l4.3,3C58.6,23.5,60.9,21,63.5,18.7z"/>
			<path class="st1" d="M49.1,39.9L44.2,38c-1.3,3.6-2.3,7.3-2.9,11.1l5.2,0.7C47.1,46.4,48,43.1,49.1,39.9z"/>
			<path class="st1" d="M45.9,58c0-1.9,0.1-3.7,0.3-5.6L41,51.7c-0.2,2-0.3,4.1-0.3,6.2c0,1.8,0.1,3.5,0.3,5.3l5.2-0.6
				C46,61.2,45.9,59.6,45.9,58z"/>
			<path class="st1" d="M54.7,58c0-1.5,0.1-3,0.2-4.5l-6.3-0.8c-0.2,1.7-0.3,3.5-0.3,5.3c0,1.5,0.1,3,0.2,4.4l6.3-0.7
				C54.7,60.5,54.7,59.3,54.7,58z"/>
			<path class="st1" d="M70.2,79.5l-4.9,3.3c1.5,2,3.2,3.9,5,5.6l4-4.4C72.8,82.6,71.4,81.1,70.2,79.5z"/>
			<path class="st1" d="M64.8,98.5l-3.5,3.9c2.9,2.5,6,4.6,9.4,6.5l2.5-4.6C70.2,102.6,67.4,100.6,64.8,98.5z"/>
			<path class="st1" d="M78,19.2l-2.9-5.6c-2.8,1.5-5.5,3.3-8,5.3l4.2,4.8C73.4,21.9,75.6,20.4,78,19.2z"/>
		</g>
		<path class="st1" d="M145.6,23.9c-3.2,4.4-8.1,12.3-10.6,24.2c0.6-13.3,4-25.5,7-28.7C143.1,20.6,144.8,22.7,145.6,23.9z"/>
		<path class="st1" d="M145.6,92.2c3.2-4.4,8.1-12.3,10.6-24.2c-0.6,13.3-4,25.5-7,28.7C148.1,95.5,146.4,93.4,145.6,92.2z"/>
	</g>
	<g>
		<g>
			<g>
				<path class="st1" d="M128.8,208.1l-0.1,0.5v0.4c0,0.4,0.1,0.7,0.4,0.9s0.7,0.3,1.2,0.3h0.2v0.6h-4.9v-0.6c0.4,0,0.7-0.1,1-0.4
					c0.3-0.2,0.5-0.6,0.8-1.2l5.5-13.9h1.8l5.6,14.1c0.2,0.5,0.4,0.9,0.6,1.1c0.2,0.2,0.5,0.3,0.9,0.3v0.6h-8.6v-0.6
					c0.8,0,1.4-0.1,1.6-0.2c0.2-0.1,0.3-0.4,0.3-0.7c0-0.1,0-0.1,0-0.2s0-0.2-0.1-0.3c0-0.1-0.1-0.2-0.1-0.3l-1-2.9h-4.2
					L128.8,208.1z M130.1,204.6h3.4l-1.7-4.5L130.1,204.6z"/>
				<path class="st1" d="M142,208.6c0-0.6,0.2-1.2,0.7-1.7s1-0.7,1.7-0.7s1.2,0.2,1.7,0.7s0.7,1,0.7,1.7c0,0.7-0.2,1.2-0.7,1.7
					s-1,0.7-1.7,0.7c-0.6,0-1.2-0.2-1.7-0.7C142.3,209.8,142,209.3,142,208.6z"/>
				<path class="st1" d="M148.9,211.1v-5.9h0.6c0.2,1.4,0.8,2.5,1.9,3.5c1.1,0.9,2.3,1.4,3.7,1.4c0.9,0,1.6-0.2,2.2-0.6
					c0.6-0.4,0.8-1,0.8-1.6c0-1-1.3-2.1-4-3.2l0,0l-0.7-0.3c-1.8-0.8-3-1.6-3.6-2.4c-0.2-0.3-0.4-0.7-0.6-1.2
					c-0.1-0.4-0.2-0.9-0.2-1.3c0-1.5,0.6-2.7,1.7-3.7s2.6-1.4,4.3-1.4c0.9,0,1.9,0.2,3,0.5c1,0.4,1.6,0.6,1.7,0.6
					c0.3,0,0.4-0.1,0.6-0.2c0.1-0.1,0.1-0.2,0.1-0.4c0-0.1,0.1-0.3,0.1-0.5h0.6v5.2h-0.5c-0.2-1.2-0.8-2.2-1.8-3s-2.1-1.1-3.3-1.1
					c-0.8,0-1.4,0.2-1.9,0.5c-0.5,0.4-0.7,0.8-0.7,1.4c0,0.9,1,1.7,3.1,2.6l0.3,0.1c1.4,0.6,2.5,1.1,3,1.4c0.6,0.3,1,0.7,1.3,1
					c0.4,0.5,0.8,1,1,1.6s0.3,1.2,0.3,1.8c0,1.6-0.6,2.9-1.7,3.8c-1.1,1-2.6,1.5-4.5,1.5c-0.5,0-1.1,0-1.6-0.1s-1.1-0.2-1.7-0.4
					c-1.1-0.3-1.7-0.5-1.8-0.5c-0.3,0-0.5,0.1-0.7,0.3c-0.2,0.2-0.3,0.4-0.3,0.8h-0.7V211.1z M152.1,215l0.5-1.1
					c0.5,0.3,1,0.5,1.4,0.7c0.5,0.2,0.8,0.2,1.1,0.2c0.2,0,0.4,0,0.5,0s0.3-0.1,0.4-0.2c0.2-0.2,0.3-0.4,0.3-0.7
					c0-0.3-0.1-0.5-0.3-0.7s-0.4-0.2-0.8-0.2h-0.4l-0.4,0.1v-2.3h1v1.3h0.4h0.4c0.7,0,1.2,0.2,1.6,0.5c0.4,0.3,0.6,0.8,0.6,1.4
					s-0.2,1.2-0.7,1.6s-1.1,0.6-1.8,0.6c-0.6,0-1.2-0.1-1.9-0.3C153.5,215.7,152.8,215.4,152.1,215z"/>
				<path class="st1" d="M163.4,208.6c0-0.6,0.2-1.2,0.7-1.7s1-0.7,1.7-0.7s1.2,0.2,1.7,0.7s0.7,1,0.7,1.7c0,0.7-0.2,1.2-0.7,1.7
					s-1,0.7-1.7,0.7c-0.6,0-1.2-0.2-1.7-0.7C163.7,209.8,163.4,209.3,163.4,208.6z"/>
			</g>
		</g>
		<rect x="81.2" y="202.7" class="st1" width="39.9" height="1.1"/>
		<rect x="170.1" y="202.7" class="st1" width="39.9" height="1.1"/>
	</g>
	<g>
		<g>
			<path class="st1" d="M53.2,156.7c0,16.1-10.8,26.9-26.6,26.9S0,172.8,0,156.7s10.8-26.9,26.6-26.9S53.2,140.6,53.2,156.7z
				 M47.5,156.7c0-14.8-8.4-24.7-20.9-24.7s-20.9,9.9-20.9,24.7s8.4,24.7,20.9,24.7S47.5,171.6,47.5,156.7z"/>
			<path class="st1" d="M78.1,138.3c9.3,0,15,4.5,15,12c0,6.3-4.9,11.5-11.5,12.2c1.6,0.7,4.1,3.5,5.7,5.8c0,0,3.4,4.6,6.5,8.1
				c3,3.4,5.1,5.6,9.2,5.6v0.7h-2.3c-8.2,0-11.4-3.7-13.7-6.5c-0.8-1-6.7-9.4-7.2-10.1c-2-2.5-4.6-5-7.5-5v-0.7c0,0,1.8,0,4.2,0
				c4.1-0.1,8.7-0.1,10.9-6.4c0.4-1,0.6-2.6,0.5-4.2c-0.2-5.5-3.9-8.8-9.8-9.1c-4.2-0.2-7.8,0-8.5-0.1v37.3c0,2.2,1.8,4,4.2,4h1v0.7
				H59.7v-0.7h1c2.3,0,4.1-1.7,4.2-3.9v-35.1c-0.1-2.2-1.8-3.8-4.2-3.8h-1v-0.7L78.1,138.3z"/>
			<path class="st1" d="M148.5,174.1c-3.4,4.3-10.6,9.5-21.1,9.5c-14.6-0.1-24.2-8.9-24.2-23.2c0-14.4,9.7-23.2,24.2-23.2
				c6.8,0,12.3,1.4,17.3,4.5l1.6,10.4h-0.6c-2.1-8.6-8-12.7-18.3-12.7c-11.3,0-18.8,8-18.8,21s7.6,21,18.9,21
				c6.2,0,11.6-1.9,16.2-6.4l0.1-9.8c0-1.9-1.3-2.9-3.4-2.9h-1.1v-0.7h13.6v0.7h-1c-2.2,0-3.4,1-3.4,2.9V174.1z"/>
			<path class="st1" d="M172.1,182.6h-14.5v-0.7h0.8c2.2,0,4-1.8,4.1-4V143c0-2.2-1.9-4-4.1-4h-0.8v-0.7h14.5v0.7h-0.8
				c-2.2,0-4,1.7-4.1,3.9v35c0.1,2.2,1.9,4,4.1,4h0.8V182.6z"/>
			<path class="st1" d="M231.3,138.3v0.7h-1.2c-2.2,0-4,1.6-4.1,3.7v31.5c0,4.8,0.7,9.4,0.7,9.4H226l-38.4-36.5V178
				c0,2.1,1.9,3.9,4.1,3.9h1.2v0.7h-14v-0.7h1.2c2.2,0,4.1-1.7,4.1-3.9v-31.6c0-5-0.7-9.2-0.7-9.2h0.8l38.4,36.2v-30.7
				c-0.1-2.1-1.9-3.7-4.1-3.7h-1.2v-0.7H231.3z"/>
			<path class="st1" d="M292.4,156.7c0,16.1-10.8,26.9-26.6,26.9c-15.7,0-26.6-10.8-26.6-26.9s10.8-26.9,26.6-26.9
				C281.6,129.8,292.4,140.6,292.4,156.7z M286.8,156.7c0-14.8-8.4-24.7-20.9-24.7s-20.9,9.9-20.9,24.7s8.4,24.7,20.9,24.7
				S286.8,171.6,286.8,156.7z"/>
		</g>
		<g>
			<path class="st1" d="M161.1,134.4l-0.2-7.2l7.8-1.5l0.3,7.2L161.1,134.4z"/>
		</g>
	</g>
</g>
</svg>
